<?xml version="1.0" standalone="no"?><!DOCTYPE svg PUBLIC "-//W3C//DTD SVG 1.1//EN" "http://www.w3.org/Graphics/SVG/1.1/DTD/svg11.dtd"><svg t="1627481366431" class="icon" viewBox="0 0 1024 1024" version="1.1" xmlns="http://www.w3.org/2000/svg" p-id="11284" xmlns:xlink="http://www.w3.org/1999/xlink" width="200" height="200"><defs><style type="text/css">@font-face { font-family: feedback-iconfont; src: url("//at.alicdn.com/t/font_1031158_1uhr8ri0pk5.eot?#iefix") format("embedded-opentype"), url("//at.alicdn.com/t/font_1031158_1uhr8ri0pk5.woff2") format("woff2"), url("//at.alicdn.com/t/font_1031158_1uhr8ri0pk5.woff") format("woff"), url("//at.alicdn.com/t/font_1031158_1uhr8ri0pk5.ttf") format("truetype"), url("//at.alicdn.com/t/font_1031158_1uhr8ri0pk5.svg#iconfont") format("svg"); }
</style></defs><path d="M539.1872 793.4976H484.5056c-33.9456 0-61.44-27.4944-61.44-61.44V307.8656c0-33.9456 27.4944-61.44 61.44-61.44h54.6304c33.9456 0 61.44 27.4944 61.44 61.44v424.192c0.0512 33.9456-27.4432 61.44-61.3888 61.44z" fill="#ffa115" p-id="11285"></path><path d="M185.2416 824.2176h54.6304c50.7904 0 92.16-41.3696 92.16-92.16V449.024c0-50.7904-41.3696-92.16-92.16-92.16H185.2416c-50.7904 0-92.16 41.3696-92.16 92.16v283.0336c0 50.7904 41.3184 92.16 92.16 92.16z m-30.72-375.1936c0-16.9472 13.7728-30.72 30.72-30.72h54.6304c16.9472 0 30.72 13.7728 30.72 30.72v283.0336c0 16.9472-13.7728 30.72-30.72 30.72H185.2416c-16.9472 0-30.72-13.7728-30.72-30.72V449.024zM484.5056 824.2176h54.6304c50.7904 0 92.16-41.3696 92.16-92.16V307.8656c0-50.7904-41.3696-92.16-92.16-92.16H484.5056c-50.7904 0-92.16 41.3696-92.16 92.16v424.192c0 50.7904 41.3696 92.16 92.16 92.16z m-30.72-516.352c0-16.9472 13.7728-30.72 30.72-30.72h54.6304c16.9472 0 30.72 13.7728 30.72 30.72v424.192c0 16.9472-13.7728 30.72-30.72 30.72H484.5056c-16.9472 0-30.72-13.7728-30.72-30.72V307.8656zM834.9184 82.3808H780.288c-50.7904 0-92.16 41.3696-92.16 92.16v557.5168c0 50.7904 41.3696 92.16 92.16 92.16h54.6304c50.7904 0 92.16-41.3696 92.16-92.16V174.5408c0-50.8416-41.3184-92.16-92.16-92.16z m30.72 649.6768c0 16.9472-13.7728 30.72-30.72 30.72H780.288c-16.9472 0-30.72-13.7728-30.72-30.72V174.5408c0-16.9472 13.7728-30.72 30.72-30.72h54.6304c16.9472 0 30.72 13.7728 30.72 30.72v557.5168zM896.3584 875.4176H123.8016c-16.9472 0-30.72 13.7728-30.72 30.72s13.7728 30.72 30.72 30.72h772.5568c16.9472 0 30.72-13.7728 30.72-30.72s-13.7728-30.72-30.72-30.72z" fill="#474A54" p-id="11286"></path></svg>