<?xml version="1.0" standalone="no"?><!DOCTYPE svg PUBLIC "-//W3C//DTD SVG 1.1//EN" "http://www.w3.org/Graphics/SVG/1.1/DTD/svg11.dtd"><svg t="1628079616128" class="icon" viewBox="0 0 1024 1024" version="1.1" xmlns="http://www.w3.org/2000/svg" p-id="3292" width="200" height="200" xmlns:xlink="http://www.w3.org/1999/xlink"><defs><style type="text/css"></style></defs><path d="M512 64c247.424 0 448 200.576 448 448S759.424 960 512 960 64 759.424 64 512 264.576 64 512 64z m0 68c-209.868 0-380 170.132-380 380s170.132 380 380 380 380-170.132 380-380-170.132-380-380-380z m-48.516 212.181l0.435 0.29 0.435 0.3L664.38 484.828c9.168 6.42 13.94 16.775 13.635 27.183 0.301 10.245-4.318 20.438-13.204 26.877l-0.43 0.307-200.026 140.059c-14.477 10.137-34.43 6.618-44.567-7.859-10.035-14.332-6.687-34.032 7.428-44.26l0.43-0.307 163.976-114.817-163.975-114.816c-14.477-10.137-17.996-30.09-7.859-44.567 9.935-14.19 29.3-17.851 43.697-8.448z" p-id="3293" fill="#FFA600"></path></svg>